<svg 
 xmlns="http://www.w3.org/2000/svg"
 xmlns:xlink="http://www.w3.org/1999/xlink"
 width="11px" height="12px">
<path fill-rule="evenodd"  fill-opacity="0.749" fill="rgb(255, 255, 255)"
 d="M5.000,9.993 C5.000,9.993 -0.000,5.090 -0.000,5.090 C-0.000,5.090 -0.000,6.502 -0.000,6.502 C-0.000,6.502 4.758,11.165 4.758,11.165 C4.758,11.165 5.000,11.407 5.000,11.407 C5.000,11.407 5.222,11.629 5.222,11.629 C5.222,11.629 5.465,11.871 5.465,11.871 C5.465,11.871 5.707,11.629 5.707,11.629 C5.707,11.629 6.000,11.336 6.000,11.336 C6.000,11.336 6.172,11.165 6.172,11.165 C6.172,11.165 11.000,6.483 11.000,6.483 C11.000,6.483 11.000,5.071 11.000,5.071 C11.000,5.071 6.000,9.922 6.000,9.922 C6.000,9.922 6.001,0.129 6.001,0.129 C6.001,0.129 5.001,0.129 5.001,0.129 C5.001,0.129 5.000,9.993 5.000,9.993 Z"/>
</svg>