<?xml version="1.0" encoding="utf-8"?>
<!-- Generator: Avocode 2.6.0 - http://avocode.com -->
<svg height="32" width="33" xmlns:xlink="http://www.w3.org/1999/xlink" xmlns="http://www.w3.org/2000/svg" viewBox="0 0 33 32">
    <path fill="#b2b2b2" fill-rule="evenodd" d="M 16.5 32 C 7.8 32 0.75 24.95 0.75 16.25 C 0.75 7.55 7.8 0.5 16.5 0.5 C 25.2 0.5 32.25 7.55 32.25 16.25 C 32.25 24.95 25.2 32 16.5 32 Z M 16.5 2.96 C 9.16 2.96 3.21 8.91 3.21 16.25 C 3.21 23.59 9.16 29.54 16.5 29.54 C 23.84 29.54 29.79 23.59 29.79 16.25 C 29.79 8.91 23.84 2.96 16.5 2.96 Z M 22.8 12.81 C 22.8 12.82 22.8 12.84 22.8 12.86 C 22.8 12.87 22.8 12.89 22.8 12.9 C 22.8 12.91 22.8 12.91 22.8 12.92 C 23.02 18.56 18.95 23.14 13.71 23.14 C 11.86 23.14 10.12 22.57 8.63 21.59 C 10.83 21.97 12.6 20.79 13.13 20.14 C 11.66 20.14 10.33 18.8 10.22 17.77 C 10.52 17.81 11.19 17.88 11.57 17.65 C 9.59 17.07 9.04 15.45 9.07 14.24 C 9.4 14.58 10.1 14.66 10.49 14.63 C 9.37 13.89 8.52 11.85 9.5 10.01 C 11.1 12.26 13.95 13.57 16.38 13.64 C 16.38 13.64 16.38 13.64 16.38 13.64 C 16.33 13.39 16.3 13.13 16.3 12.86 C 16.3 10.93 17.76 9.36 19.55 9.36 C 20.47 9.36 21.31 9.77 21.9 10.44 C 21.9 10.44 21.9 10.44 21.9 10.44 C 22.42 10.44 23.47 9.98 23.93 9.67 C 23.75 10.39 23.05 11.29 22.57 11.57 C 23.31 11.49 24.11 11.17 24.38 11.02 C 23.92 11.83 23.28 12.46 22.8 12.81 Z" />
</svg>
