<svg 
 xmlns="http://www.w3.org/2000/svg"
 xmlns:xlink="http://www.w3.org/1999/xlink"
 width="55px" height="55px">
<path fill-rule="evenodd"  fill="rgb(34, 34, 34)"
 d="M39.312,51.125 C39.312,51.125 35.937,51.125 35.937,51.125 C34.075,51.125 32.562,49.612 32.562,47.750 C32.562,47.750 32.562,42.687 32.562,42.687 C32.562,42.687 22.437,42.687 22.437,42.687 C22.437,42.687 22.437,47.750 22.437,47.750 C22.437,49.612 20.925,51.125 19.062,51.125 C19.062,51.125 15.687,51.125 15.687,51.125 C14.754,51.125 14.000,51.881 14.000,52.812 C14.000,53.745 14.754,54.500 15.687,54.500 C15.687,54.500 39.312,54.500 39.312,54.500 C40.245,54.500 41.000,53.745 41.000,52.812 C41.000,51.881 40.245,51.125 39.312,51.125 ZM51.547,0.499 C51.547,0.499 3.453,0.499 3.453,0.499 C1.823,0.499 0.500,1.917 0.500,3.664 C0.500,3.664 0.500,36.148 0.500,36.148 C0.500,37.895 1.823,39.312 3.453,39.312 C3.453,39.312 51.547,39.312 51.547,39.312 C53.177,39.312 54.500,37.895 54.500,36.148 C54.500,36.148 54.500,3.664 54.500,3.664 C54.500,1.917 53.177,0.499 51.547,0.499 ZM51.125,35.937 C51.125,35.937 3.875,35.937 3.875,35.937 C3.875,35.937 3.875,3.875 3.875,3.875 C3.875,3.875 51.125,3.875 51.125,3.875 C51.125,3.875 51.125,35.937 51.125,35.937 Z"/>
</svg>