<svg 
 xmlns="http://www.w3.org/2000/svg"
 xmlns:xlink="http://www.w3.org/1999/xlink"
 width="14px" height="12px">
<path fill-rule="evenodd"  fill="rgb(90, 90, 90)"
 d="M12.761,2.126 C12.761,2.126 10.209,2.126 10.209,2.126 C10.209,2.126 10.209,0.850 10.209,0.850 C10.209,0.381 9.828,-0.000 9.358,-0.000 C9.358,-0.000 4.254,-0.000 4.254,-0.000 C3.784,-0.000 3.403,0.380 3.403,0.850 C3.403,0.850 3.403,2.126 3.403,2.126 C3.403,2.126 0.851,2.126 0.851,2.126 C0.381,2.126 -0.000,2.508 -0.000,2.977 C-0.000,2.977 -0.000,11.059 -0.000,11.059 C-0.000,11.528 0.381,11.910 0.851,11.910 C0.851,11.910 12.761,11.910 12.761,11.910 C13.231,11.910 13.612,11.528 13.612,11.059 C13.612,11.059 13.612,2.977 13.612,2.977 C13.612,2.508 13.231,2.126 12.761,2.126 ZM4.679,1.276 C4.679,1.276 8.933,1.276 8.933,1.276 C8.933,1.276 8.933,2.126 8.933,2.126 C8.933,2.126 4.679,2.126 4.679,2.126 C4.679,2.126 4.679,1.276 4.679,1.276 ZM12.336,10.634 C12.336,10.634 1.276,10.634 1.276,10.634 C1.276,10.634 1.276,7.231 1.276,7.231 C1.276,7.231 5.530,7.231 5.530,7.231 C5.530,7.231 5.530,7.656 5.530,7.656 C5.530,7.656 8.082,7.656 8.082,7.656 C8.082,7.656 8.082,7.231 8.082,7.231 C8.082,7.231 12.336,7.231 12.336,7.231 C12.336,7.231 12.336,10.634 12.336,10.634 ZM12.336,5.955 C12.336,5.955 8.082,5.955 8.082,5.955 C8.082,5.955 8.082,5.529 8.082,5.529 C8.082,5.529 5.530,5.529 5.530,5.529 C5.530,5.529 5.530,5.955 5.530,5.955 C5.530,5.955 1.276,5.955 1.276,5.955 C1.276,5.955 1.276,3.402 1.276,3.402 C1.276,3.402 12.336,3.402 12.336,3.402 C12.336,3.402 12.336,5.955 12.336,5.955 Z"/>
</svg>