<?xml version="1.0" encoding="utf-8"?>
<!-- Generator: Avocode 2.6.0 - http://avocode.com -->
<svg height="30" width="30" xmlns:xlink="http://www.w3.org/1999/xlink" xmlns="http://www.w3.org/2000/svg" viewBox="0 0 31 31">
    <path fill="#b2b2b2" fill-rule="evenodd" d="M 15.13 30.38 C 6.84 30.38 0.13 23.66 0.13 15.38 C 0.13 7.09 6.84 0.38 15.13 0.38 C 23.41 0.38 30.13 7.09 30.13 15.38 C 30.13 23.66 23.41 30.38 15.13 30.38 Z M 15.13 2.72 C 8.13 2.72 2.47 8.39 2.47 15.38 C 2.47 22.36 8.13 28.03 15.13 28.03 C 22.12 28.03 27.78 22.36 27.78 15.38 C 27.78 8.39 22.12 2.72 15.13 2.72 Z M 15.13 22.88 C 10.98 22.88 7.63 19.52 7.63 15.38 C 7.63 11.23 10.98 7.88 15.13 7.88 C 19.27 7.88 22.63 11.23 22.63 15.38 C 22.63 19.52 19.27 22.88 15.13 22.88 Z M 15.13 21.23 C 15.86 21.23 16.56 21.09 17.2 20.84 C 16.89 19.24 16.49 17.81 16.05 16.56 C 14.74 16.99 13.73 17.71 13.01 18.4 C 12.3 19.08 11.86 19.73 11.65 20.07 C 12.62 20.8 13.82 21.23 15.13 21.23 Z M 9.27 15.38 C 9.27 16.81 9.8 18.12 10.66 19.14 C 10.96 18.67 11.49 17.97 12.27 17.26 C 13.08 16.52 14.17 15.78 15.56 15.31 C 15.45 15.05 15.34 14.79 15.23 14.54 C 13.15 15.2 11.09 15.29 9.92 15.3 C 9.66 15.3 9.44 15.3 9.28 15.29 C 9.28 15.32 9.27 15.35 9.27 15.38 Z M 9.45 13.96 C 9.58 13.96 9.73 13.97 9.92 13.97 C 9.94 13.97 9.98 13.97 10.01 13.97 C 11.08 13.97 12.86 13.84 14.63 13.32 C 13.76 11.67 12.95 10.61 12.54 10.13 C 11.02 10.89 9.87 12.28 9.45 13.96 Z M 15.13 9.52 C 14.7 9.52 14.28 9.57 13.88 9.66 C 14.39 10.31 15.13 11.38 15.9 12.86 C 16.99 12.39 18.01 11.73 18.77 10.81 C 17.77 10.01 16.51 9.52 15.13 9.52 Z M 19.72 11.76 C 18.8 12.81 17.67 13.55 16.48 14.07 C 16.62 14.36 16.74 14.66 16.88 14.98 C 17.41 14.89 17.97 14.83 18.57 14.83 C 18.57 14.83 18.58 14.83 18.58 14.83 C 19.32 14.83 20.12 14.92 20.97 15.1 C 20.91 13.84 20.45 12.69 19.72 11.76 Z M 18.57 16.17 C 18.57 16.17 18.57 16.17 18.57 16.17 C 18.57 16.17 18.57 16.17 18.57 16.17 C 18.57 16.17 18.56 16.17 18.56 16.17 C 18.14 16.17 17.74 16.2 17.36 16.26 C 17.77 17.43 18.14 18.73 18.44 20.19 C 19.69 19.32 20.58 17.99 20.87 16.45 C 20.04 16.26 19.27 16.17 18.57 16.17 Z" />
</svg>
