<?xml version="1.0" encoding="utf-8"?>
<!-- Generator: Avocode 2.6.0 - http://avocode.com -->
<svg height="30" width="30" xmlns:xlink="http://www.w3.org/1999/xlink" xmlns="http://www.w3.org/2000/svg" viewBox="0 0 31 31">
    <path fill="#b2b2b2" fill-rule="evenodd" d="M 15.25 30.5 C 6.83 30.5 0 23.67 0 15.25 C 0 6.83 6.83 0 15.25 0 C 23.67 0 30.5 6.83 30.5 15.25 C 30.5 23.67 23.67 30.5 15.25 30.5 Z M 15.25 2.38 C 8.14 2.38 2.38 8.14 2.38 15.25 C 2.38 22.36 8.14 28.12 15.25 28.12 C 22.36 28.12 28.12 22.36 28.12 15.25 C 28.12 8.14 22.36 2.38 15.25 2.38 Z M 20.02 16.2 C 19.98 15.97 19.33 14.37 18.12 14.29 C 15.86 13.99 15.26 15.95 15.26 16.2 C 15.26 16.2 15.26 22.87 15.26 22.87 C 15.26 22.87 12.4 22.87 12.4 22.87 C 12.4 22.87 12.4 11.43 12.4 11.43 C 12.4 11.43 15.26 11.43 15.26 11.43 C 15.26 11.43 15.26 13.34 15.26 13.34 C 15.42 13.26 16.62 11.47 19.07 11.43 C 22.2 11.47 22.77 13.82 22.87 14.96 C 22.87 14.96 22.87 22.88 22.87 22.88 C 22.87 22.88 20.02 22.87 20.02 22.87 C 20.02 22.87 20.02 16.2 20.02 16.2 Z M 7.63 11.43 C 7.63 11.43 10.49 11.43 10.49 11.43 C 10.49 11.43 10.49 22.87 10.49 22.87 C 10.49 22.87 7.63 22.87 7.63 22.87 C 7.63 22.87 7.63 11.43 7.63 11.43 Z M 9.06 10.48 C 8.27 10.48 7.63 9.84 7.63 9.05 C 7.63 8.26 8.27 7.62 9.06 7.62 C 9.85 7.62 10.49 8.26 10.49 9.05 C 10.49 9.84 9.85 10.48 9.06 10.48 Z" />
</svg>
