<?xml version="1.0" encoding="utf-8"?>
<!-- Generator: Avocode 2.6.0 - http://avocode.com -->
<svg height="30" width="30" xmlns:xlink="http://www.w3.org/1999/xlink" xmlns="http://www.w3.org/2000/svg" viewBox="0 0 31 32">
    <path fill="#b2b2b2" fill-rule="evenodd" d="M 15.42 31.5 C 6.9 31.5 0 24.6 0 16.08 C 0 7.57 6.9 0.67 15.42 0.67 C 23.93 0.67 30.83 7.57 30.83 16.08 C 30.83 24.6 23.93 31.5 15.42 31.5 Z M 15.42 3.07 C 8.23 3.07 2.41 8.9 2.41 16.08 C 2.41 23.27 8.23 29.09 15.42 29.09 C 22.6 29.09 28.42 23.27 28.42 16.08 C 28.42 8.9 22.6 3.07 15.42 3.07 Z M 21.24 13.19 C 21.24 13.19 20.26 13.19 20.26 13.19 C 20.26 13.19 20.26 11.29 20.26 11.29 C 20.26 11.29 18.34 11.29 18.34 11.29 C 18.34 11.29 18.34 10.31 18.34 10.31 C 18.34 10.31 20.26 10.31 20.26 10.31 C 20.26 10.31 20.26 8.41 20.26 8.41 C 20.26 8.41 21.24 8.41 21.24 8.41 C 21.24 8.41 21.24 10.31 21.24 10.31 C 21.24 10.31 23.13 10.31 23.13 10.31 C 23.13 10.31 23.13 11.29 23.13 11.29 C 23.13 11.29 21.24 11.29 21.24 11.29 C 21.24 11.29 21.24 13.19 21.24 13.19 Z M 15.23 9 C 15.23 9 16.6 9.85 16.6 11.5 C 16.6 13.15 15.8 13.87 14.79 14.76 C 13.79 15.64 14.37 16.17 15.95 17.29 C 17.52 18.41 17.96 20.89 15.93 22.69 C 13.89 24.48 7.7 24.24 7.7 20.91 C 7.7 17.57 12.36 17.52 12.74 17.52 C 13.12 17.52 13.18 17.42 12.87 17.08 C 12.55 16.74 12.04 16.09 12.63 15.37 C 11.58 15.41 8.69 14.84 8.69 12.17 C 8.69 9.51 11.48 8.37 12.48 8.37 C 12.48 8.37 17.5 8.37 17.5 8.37 C 17.5 8.37 17.27 8.56 16.74 8.85 C 16.22 9.15 15.23 9 15.23 9 Z M 9.48 20.3 C 9.48 21.84 10.6 22.88 12.67 22.88 C 14.75 22.88 15.97 22.18 15.97 20.74 C 15.97 19.3 14.6 18.58 13.83 17.99 C 11 17.99 9.48 18.75 9.48 20.3 Z M 12.28 8.88 C 9.34 8.88 10.47 14.71 12.97 14.71 C 16.28 14.71 14.56 8.79 12.28 8.88 Z" />
</svg>
